<mxfile host="65bd71144e">
    <diagram id="KyY1V1iXzrsZASZW6IY_" name="Page-1">
        <mxGraphModel dx="977" dy="587" grid="1" gridSize="10" guides="1" tooltips="1" connect="1" arrows="1" fold="1" page="1" pageScale="1" pageWidth="850" pageHeight="1100" math="0" shadow="0">
            <root>
                <mxCell id="0"/>
                <mxCell id="1" parent="0"/>
                <mxCell id="11" value="Product" style="shape=process2;fixedSize=1;size=5;fontStyle=1;strokeWidth=2;gradientColor=none;" parent="1" vertex="1">
                    <mxGeometry x="165" y="10" width="140" height="40" as="geometry"/>
                </mxCell>
                <mxCell id="12" value="&amp;lt;&amp;lt;Identifial&amp;gt;&amp;gt;&lt;br&gt;&lt;b&gt;Product&lt;/b&gt;" style="swimlane;fontStyle=0;align=center;verticalAlign=top;childLayout=stackLayout;horizontal=1;startSize=40;horizontalStack=0;resizeParent=1;resizeParentMax=0;resizeLast=0;collapsible=0;marginBottom=0;html=1;strokeWidth=2;gradientColor=none;" parent="1" vertex="1">
                    <mxGeometry x="10" y="10" width="140" height="70" as="geometry"/>
                </mxCell>
                <mxCell id="13" value="literal1" style="text;html=1;strokeColor=none;fillColor=none;align=left;verticalAlign=middle;spacingLeft=4;spacingRight=4;overflow=hidden;rotatable=0;points=[[0,0.5],[1,0.5]];portConstraint=eastwest;strokeWidth=2;" parent="12" vertex="1">
                    <mxGeometry y="40" width="140" height="30" as="geometry"/>
                </mxCell>
                <mxCell id="14" value="Blog" style="shape=process2;fixedSize=1;size=5;fontStyle=1;strokeWidth=2;gradientColor=none;" parent="1" vertex="1">
                    <mxGeometry x="20" y="175" width="140" height="40" as="geometry"/>
                </mxCell>
                <mxCell id="15" value="Author" style="shape=process2;fixedSize=1;size=5;fontStyle=1;strokeWidth=2;gradientColor=none;" parent="1" vertex="1">
                    <mxGeometry x="20" y="305" width="140" height="40" as="geometry"/>
                </mxCell>
                <mxCell id="18" value="Association Representation" style="text;html=1;align=center;verticalAlign=middle;resizable=0;points=[];autosize=1;strokeColor=none;fillColor=none;" parent="1" vertex="1">
                    <mxGeometry x="10" y="140" width="170" height="30" as="geometry"/>
                </mxCell>
                <mxCell id="19" value="Search Service" style="shape=process2;fixedSize=1;size=5;fontStyle=1;strokeWidth=2;gradientColor=none;" parent="1" vertex="1">
                    <mxGeometry x="270" y="175" width="140" height="40" as="geometry"/>
                </mxCell>
                <mxCell id="20" value="Query Builder" style="shape=process2;fixedSize=1;size=5;fontStyle=1;strokeWidth=2;gradientColor=none;" parent="1" vertex="1">
                    <mxGeometry x="270" y="305" width="140" height="40" as="geometry"/>
                </mxCell>
                <mxCell id="23" value="Aggregation" style="text;html=1;align=center;verticalAlign=middle;resizable=0;points=[];autosize=1;strokeColor=none;fillColor=none;" parent="1" vertex="1">
                    <mxGeometry x="295" y="140" width="90" height="30" as="geometry"/>
                </mxCell>
                <mxCell id="24" value="Directoy" style="shape=process2;fixedSize=1;size=5;fontStyle=1;strokeWidth=2;gradientColor=none;" parent="1" vertex="1">
                    <mxGeometry x="520" y="175" width="140" height="40" as="geometry"/>
                </mxCell>
                <mxCell id="25" value="File" style="shape=process2;fixedSize=1;size=5;fontStyle=1;strokeWidth=2;gradientColor=none;" parent="1" vertex="1">
                    <mxGeometry x="520" y="305" width="140" height="40" as="geometry"/>
                </mxCell>
                <mxCell id="27" value="Composition" style="text;html=1;align=center;verticalAlign=middle;resizable=0;points=[];autosize=1;strokeColor=none;fillColor=none;" parent="1" vertex="1">
                    <mxGeometry x="535" y="135" width="90" height="30" as="geometry"/>
                </mxCell>
                <mxCell id="29" value="BaseClient" style="shape=process2;fixedSize=1;size=5;fontStyle=1;strokeWidth=2;gradientColor=none;" parent="1" vertex="1">
                    <mxGeometry x="520" y="450" width="140" height="40" as="geometry"/>
                </mxCell>
                <mxCell id="30" value="UserApiClient" style="shape=process2;fixedSize=1;size=5;fontStyle=1;strokeWidth=2;gradientColor=none;" parent="1" vertex="1">
                    <mxGeometry x="520" y="580" width="140" height="40" as="geometry"/>
                </mxCell>
                <mxCell id="31" value="Inheritance" style="text;html=1;align=center;verticalAlign=middle;resizable=0;points=[];autosize=1;strokeColor=none;fillColor=none;" parent="1" vertex="1">
                    <mxGeometry x="550" y="410" width="80" height="30" as="geometry"/>
                </mxCell>
                <mxCell id="35" value="Extends" style="endArrow=block;endSize=16;endFill=0;html=1;entryX=0.5;entryY=1;entryDx=0;entryDy=0;exitX=0.5;exitY=0;exitDx=0;exitDy=0;" parent="1" source="30" target="29" edge="1">
                    <mxGeometry width="160" relative="1" as="geometry">
                        <mxPoint x="430" y="540" as="sourcePoint"/>
                        <mxPoint x="590" y="540" as="targetPoint"/>
                    </mxGeometry>
                </mxCell>
                <mxCell id="36" value="" style="endArrow=diamondThin;endFill=1;endSize=24;html=1;entryX=0.5;entryY=0;entryDx=0;entryDy=0;" parent="1" source="24" target="25" edge="1">
                    <mxGeometry width="160" relative="1" as="geometry">
                        <mxPoint x="430" y="380" as="sourcePoint"/>
                        <mxPoint x="560" y="290" as="targetPoint"/>
                    </mxGeometry>
                </mxCell>
                <mxCell id="37" value="" style="endArrow=diamondThin;endFill=0;endSize=24;html=1;exitX=0.5;exitY=0;exitDx=0;exitDy=0;entryX=0.5;entryY=1;entryDx=0;entryDy=0;" parent="1" source="20" target="19" edge="1">
                    <mxGeometry width="160" relative="1" as="geometry">
                        <mxPoint x="280" y="250" as="sourcePoint"/>
                        <mxPoint x="410" y="270" as="targetPoint"/>
                    </mxGeometry>
                </mxCell>
                <mxCell id="41" value="" style="endArrow=none;html=1;edgeStyle=orthogonalEdgeStyle;exitX=0.5;exitY=0;exitDx=0;exitDy=0;" parent="1" source="15" target="14" edge="1">
                    <mxGeometry relative="1" as="geometry">
                        <mxPoint x="20" y="270" as="sourcePoint"/>
                        <mxPoint x="180" y="270" as="targetPoint"/>
                    </mxGeometry>
                </mxCell>
                <mxCell id="45" value="&lt;p style=&quot;margin:0px;margin-top:4px;text-align:center;&quot;&gt;&lt;b&gt;SSHUser&lt;/b&gt;&lt;/p&gt;&lt;hr size=&quot;1&quot;&gt;&lt;p style=&quot;margin:0px;margin-left:4px;&quot;&gt;- privateKey: private&lt;/p&gt;&lt;p style=&quot;margin:0px;margin-left:4px;&quot;&gt;+ publicKey: public&lt;/p&gt;&lt;hr size=&quot;1&quot;&gt;&lt;p style=&quot;margin:0px;margin-left:4px;&quot;&gt;+ getBase64(): string&lt;/p&gt;" style="verticalAlign=top;align=left;overflow=fill;fontSize=12;fontFamily=Helvetica;html=1;strokeWidth=2;gradientColor=none;" parent="1" vertex="1">
                    <mxGeometry x="295" y="410" width="160" height="90" as="geometry"/>
                </mxCell>
            </root>
        </mxGraphModel>
    </diagram>
</mxfile>